<?xml version="1.0" standalone="no"?>
<!DOCTYPE svg PUBLIC "-//W3C//DTD SVG 20010904//EN"
 "http://www.w3.org/TR/2001/REC-SVG-20010904/DTD/svg10.dtd">
<svg version="1.0" xmlns="http://www.w3.org/2000/svg"
 width="500.000000pt" height="500.000000pt" viewBox="0 0 500.000000 500.000000"
 preserveAspectRatio="xMidYMid meet">

<g transform="translate(0.000000,500.000000) scale(0.100000,-0.100000)"
fill="#000000" stroke="none">
<path d="M1110 4125 l0 -55 1078 0 c651 0 1101 -4 1136 -10 118 -19 233 -101
284 -202 37 -76 42 -158 41 -758 -1 -512 -2 -571 -15 -542 -12 27 -16 133 -20
580 -6 609 -8 629 -71 721 -38 55 -115 119 -168 140 -104 40 -128 41 -1238 41
-710 0 -1066 -3 -1062 -10 4 -7 369 -10 1063 -10 586 0 1082 -4 1112 -9 140
-23 254 -101 307 -209 l28 -57 3 -530 c2 -309 -1 -526 -6 -520 -5 6 -39 89
-77 185 -149 388 -279 710 -283 706 -6 -7 23 -91 90 -261 33 -82 76 -193 95
-245 38 -103 146 -384 200 -519 18 -46 33 -88 33 -93 0 -10 90 -239 155 -393
26 -60 55 -134 66 -163 30 -87 140 -342 150 -347 9 -6 -12 51 -86 240 -24 61
-66 173 -94 250 l-50 140 -4 780 c-3 682 -6 787 -20 834 -44 147 -124 245
-247 304 -143 68 -119 67 -1321 67 l-1079 0 0 -55z"/>
<path d="M2228 3885 c-216 -34 -377 -88 -553 -186 -393 -218 -649 -563 -754
-1019 -46 -197 -55 -272 -55 -475 0 -206 9 -284 56 -465 45 -176 148 -372 266
-511 59 -69 219 -205 298 -255 104 -65 272 -138 399 -173 205 -58 247 -60
1100 -61 428 -1 781 2 786 7 4 4 5 34 2 66 l-6 57 -696 0 c-390 0 -737 5 -791
10 -120 13 -277 52 -358 90 -145 68 -298 201 -385 337 -140 215 -214 489 -224
828 -6 192 3 316 38 500 59 316 232 655 447 873 139 141 293 239 492 311 44
16 87 37 96 45 12 13 43 16 162 17 89 1 137 4 122 9 -41 13 -348 9 -442 -5z"/>
<path d="M2505 3764 c-151 -26 -348 -107 -472 -192 -85 -59 -230 -205 -295
-297 -158 -224 -272 -527 -308 -815 -11 -96 -12 -387 0 -470 5 -40 8 -8 9 116
2 291 30 484 102 711 49 152 101 259 199 408 224 339 577 525 997 525 85 0
103 3 103 15 0 13 -20 15 -127 14 -71 0 -164 -7 -208 -15z"/>
<path d="M3196 3650 c3 -14 10 -32 15 -40 7 -13 8 -13 8 0 0 8 -6 26 -15 40
l-15 25 7 -25z"/>
<path d="M2697 3613 c-4 -3 -7 -12 -7 -19 0 -10 24 -14 89 -16 l90 -3 -19 -45
c-10 -25 -68 -162 -129 -306 -61 -143 -117 -278 -125 -300 -7 -21 -25 -64 -39
-94 -48 -106 -119 -265 -144 -325 -14 -33 -72 -163 -130 -290 -57 -126 -120
-266 -140 -310 -72 -159 -186 -381 -220 -428 -42 -57 -89 -95 -140 -112 -21
-7 -38 -18 -37 -24 1 -6 2 -22 3 -36 l1 -25 360 0 360 0 0 34 0 34 -129 4
c-148 3 -179 16 -195 81 -11 44 19 130 145 421 l81 186 423 0 423 0 32 -92
c18 -51 66 -183 107 -292 40 -110 73 -214 73 -232 0 -23 -8 -38 -25 -52 -18
-15 -25 -29 -25 -56 l0 -36 460 0 460 0 0 34 0 33 -107 5 c-125 5 -154 17
-222 88 -50 51 -92 129 -140 255 -16 44 -63 163 -104 265 -69 173 -168 426
-388 990 -50 129 -108 282 -130 340 -55 151 -109 291 -120 312 -9 16 -27 18
-198 18 -103 0 -191 -3 -194 -7z m187 -629 c61 -178 180 -523 249 -716 l45
-128 -384 0 c-211 0 -384 3 -384 8 0 4 43 108 96 232 54 124 144 334 200 466
57 133 107 256 110 273 4 18 8 30 11 28 2 -2 28 -76 57 -163z"/>
<path d="M2830 3018 c0 -18 199 -567 200 -551 0 14 -186 543 -195 551 -3 3 -5
3 -5 0z"/>
<path d="M3030 2444 c0 -14 53 -154 57 -150 5 4 -47 156 -53 156 -2 0 -4 -3
-4 -6z"/>
<path d="M3091 2275 c1 -19 18 -51 18 -35 0 8 -4 22 -9 30 -5 8 -9 11 -9 5z"/>
<path d="M2400 1990 c0 -7 137 -10 399 -10 l399 0 17 -52 c28 -87 168 -458
172 -455 2 2 -27 84 -63 183 -36 98 -78 215 -93 259 l-26 80 -403 3 c-266 1
-402 -1 -402 -8z"/>
<path d="M981 1467 c-1 -14 67 -126 126 -209 30 -42 85 -102 121 -134 l67 -57
-72 74 c-58 60 -155 193 -230 315 -6 10 -12 15 -12 11z"/>
<path d="M1720 1240 c0 -6 138 -10 395 -10 257 0 395 4 395 10 0 6 -138 10
-395 10 -257 0 -395 -4 -395 -10z"/>
<path d="M3365 1240 c-12 -5 188 -9 472 -9 318 -1 494 3 498 9 8 13 -941 13
-970 0z"/>
</g>
</svg>
